# xmcd
#
# Track frame offsets:
#	150
#	11160
#	24588
#	39843
#	53708
#	69363
#	83998
#	97790
#	109274
#	124745
#	144695
#	159709
#	172177
#	186310
#	201283
#	215221
#	229060
#	241744
#	257358
#	273255
#	287468
#	303654
#	317970
#
# Disc length: 4441 seconds
#
# Revision: 0
# Processed by: cddbd v1.4PL0 Copyright (c) Steve Scherf et al.
# Submitted via: EasyCDDAExtractor 5.0.5.1
#
DISCID=4b115717
DTITLE=Various Artist - Corridos Famosos
DYEAR=1900
DGENRE=Country
TTITLE0=Intro
TTITLE1=Los Dos Amigos
TTITLE2=El Corrido De Los Perez
TTITLE3=El Federal De Caminos
TTITLE4=Norteño - Asesino A Sueldo
TTITLE5=Lamberto Quintero
TTITLE6=Las Tres Tumbas
TTITLE7=Gerardo Gonzalez
TTITLE8=Contrabando Y Traicion
TTITLE9=El Ojo De Vidrio
TTITLE10=El Ultimo Cartucho
TTITLE11=Pistoleros Famosos
TTITLE12=No Mas Las Mujeres Quedan
TTITLE13=Chito Cano
TTITLE14=La Banda Del Carro Rojo
TTITLE15=Luis Pulido
TTITLE16=El Asesino
TTITLE17=Joaquin Murrieta
TTITLE18=Laurita Garza
TTITLE19=Gabino Barrera
TTITLE20=El Tahur
TTITLE21=El Caballo Jovero
TTITLE22=El Caballo Blanco
EXTD=
EXTT0=
EXTT1=
EXTT2=
EXTT3=
EXTT4=
EXTT5=
EXTT6=
EXTT7=
EXTT8=
EXTT9=
EXTT10=
EXTT11=
EXTT12=
EXTT13=
EXTT14=
EXTT15=
EXTT16=
EXTT17=
EXTT18=
EXTT19=
EXTT20=
EXTT21=
EXTT22=
PLAYORDER=
